<?xml version="1.0" encoding="UTF-8" standalone="no"?>
<svg
   width="33.641914"
   height="33.214344"
   xml:space="preserve"
   overflow="hidden"
   version="1.1"
   id="svg5"
   xmlns="http://www.w3.org/2000/svg"
   xmlns:svg="http://www.w3.org/2000/svg"><defs
     id="defs5" /><g
     transform="matrix(0.48668255,0,0,0.48668255,-295.38589,42.402218)"
     id="g5"><g
       id="g4"><g
         id="g3"><g
           id="g2"><g
             id="g1"><path
               d="m 39,4.875 c -18.8449,0 -34.125,15.6609 -34.125,34.9934 0,15.4629 9.7805,28.5644 23.3391,33.1957 1.7062,0.3199 2.3308,-0.7618 2.3308,-1.6911 0,-0.8378 -0.0304,-3.0316 -0.0457,-5.9566 -9.491,2.1176 -11.5019,-4.6922 -11.5019,-4.6922 -1.5539,-4.0371 -3.7934,-5.1187 -3.7934,-5.1187 -3.0926,-2.1785 0.2285,-2.1328 0.2285,-2.1328 3.4278,0.2437 5.2254,3.6105 5.2254,3.6105 3.0469,5.3473 7.9828,3.8086 9.9328,2.9098 0.3047,-2.2547 1.1883,-3.8086 2.1633,-4.677 -7.5715,-0.8836 -15.5391,-3.8847 -15.5391,-17.291 0,-3.8238 1.3254,-6.9469 3.504,-9.3844 -0.3504,-0.8836 -1.5235,-4.4484 0.3351,-9.2625 0,0 2.8641,-0.9445 9.3844,3.5801 2.7269,-0.7769 5.6367,-1.1578 8.5465,-1.173 2.8945,0.0152 5.8195,0.3961 8.5464,1.173 6.5204,-4.5246 9.3692,-3.5801 9.3692,-3.5801 1.8586,4.8141 0.6855,8.3789 0.3351,9.2625 2.1786,2.4528 3.504,5.5758 3.504,9.3844 0,13.4367 -7.9829,16.3922 -15.5848,17.2605 1.2187,1.0817 2.3156,3.2145 2.3156,6.4747 0,4.6769 -0.0457,8.455 -0.0457,9.5976 0,0.9293 0.6094,2.0262 2.3461,1.6758 C 63.3598,68.4176 73.125,55.316 73.125,39.8684 73.125,20.5359 57.8449,4.875 39,4.875 Z"
               fill="#000000"
               fill-rule="evenodd"
               fill-opacity="1"
               transform="matrix(1.01282,0,0,1,602,-92)"
               id="path1" /></g></g></g></g></g></svg>
